<svg class="logo" fill="none" viewBox="0 0 178 29" width="100%" xmlns="http://www.w3.org/2000/svg"><path d="M22.844 5.4375V19.9375L13.0529 25.375L3.26397 19.9375V9.0625L13.0536 3.625V0L0 7.24927V21.7507L13.0529 29L26.1072 21.75V7.24927L22.844 5.4375Z" fill="url(#paint0_linear_188_1128)"></path><path d="M9.79026 16.3125V12.6875L13.0535 10.875V7.25002L6.52704 10.875V18.125L13.0535 21.75L19.5807 18.125L19.5799 3.625L16.3175 1.8125V16.3125L13.0535 18.125L9.79026 16.3125Z" fill="url(#paint1_linear_188_1128)"></path><path d="M39.809 23.6447V6.31006H46.6951C48.1018 6.31006 49.2805 6.50465 50.23 6.89379C51.1975 7.26605 51.9714 7.81593 52.5517 8.54352C53.1321 9.27107 53.5455 10.1509 53.792 11.1831C54.0557 12.2152 54.1873 13.3911 54.1873 14.7109C54.1873 16.0476 54.0643 17.2574 53.8182 18.3403C53.5894 19.4231 53.1936 20.3622 52.6309 21.1575C52.0682 21.9527 51.3119 22.5703 50.3621 23.0102C49.4122 23.4332 48.2253 23.6447 46.8005 23.6447H39.809ZM43.4497 20.7006H46.5893C47.4161 20.7006 48.0842 20.5483 48.5944 20.2438C49.1046 19.9392 49.4914 19.5162 49.7551 18.9748C50.0368 18.4164 50.2214 17.7819 50.3092 17.0712C50.415 16.3437 50.4675 15.5569 50.4675 14.7109C50.4675 13.8987 50.415 13.1627 50.3092 12.5028C50.2037 11.826 50.0102 11.2507 49.7288 10.7769C49.4651 10.2863 49.0779 9.91403 48.5681 9.66022C48.0756 9.38952 47.4161 9.25415 46.5893 9.25415H43.4497V20.7006Z" fill="white"></path><path d="M56.9692 23.6448V10.904H60.4783V12.4014C60.7773 12.1814 61.1464 11.953 61.5865 11.7161C62.0261 11.4623 62.5007 11.2339 63.0109 11.0308C63.5387 10.8109 64.0399 10.6671 64.5148 10.5994V13.8734C64.0575 13.9411 63.5736 14.0596 63.0638 14.2287C62.5536 14.381 62.07 14.5502 61.6127 14.7364C61.1731 14.9225 60.7949 15.0917 60.4783 15.244V23.6448H56.9692Z" fill="white"></path><path d="M72.1552 23.9239C70.6603 23.9239 69.4557 23.6871 68.5411 23.2133C67.6438 22.7395 66.9933 22.012 66.5885 21.0306C66.1841 20.0323 65.9819 18.7464 65.9819 17.1728C65.9819 15.65 66.1928 14.4148 66.6152 13.4673C67.0372 12.5029 67.7053 11.7922 68.6199 11.3354C69.5345 10.8616 70.7132 10.6248 72.1552 10.6248C73.6153 10.6248 74.7936 10.8616 75.6905 11.3354C76.6051 11.7922 77.2736 12.5029 77.6956 13.4673C78.1353 14.4148 78.3551 15.65 78.3551 17.1728C78.3551 18.7464 78.1529 20.0323 77.7485 21.0306C77.3438 22.012 76.6843 22.7395 75.7697 23.2133C74.8727 23.6871 73.6678 23.9239 72.1552 23.9239ZM72.1552 21.1322C72.8939 21.1322 73.4479 21.0052 73.8175 20.7515C74.1866 20.4807 74.4331 20.0577 74.5561 19.4824C74.6968 18.8902 74.7673 18.1204 74.7673 17.1728C74.7673 16.2422 74.6882 15.5062 74.5298 14.9648C74.3715 14.4064 74.1078 14.0088 73.7383 13.7719C73.3688 13.535 72.8413 13.4165 72.1552 13.4165C71.4871 13.4165 70.9593 13.535 70.5725 13.7719C70.203 14.0088 69.9393 14.4064 69.781 14.9648C69.6227 15.5062 69.5435 16.2422 69.5435 17.1728C69.5435 18.1204 69.605 18.8902 69.7281 19.4824C69.8687 20.0577 70.1238 20.4807 70.4934 20.7515C70.8625 21.0052 71.4166 21.1322 72.1552 21.1322Z" fill="white"></path><path d="M81.0197 29V10.9039H84.5021L84.5284 11.7161C84.7749 11.5638 85.0825 11.4031 85.452 11.2339C85.8387 11.0647 86.2521 10.9209 86.6918 10.8024C87.1315 10.684 87.5625 10.6248 87.9845 10.6248C89.7608 10.6248 91.0359 11.1746 91.8098 12.2744C92.5837 13.3573 92.9709 15.0071 92.9709 17.2236C92.9709 18.8141 92.7773 20.1 92.3905 21.0814C92.0034 22.0627 91.3792 22.7818 90.5171 23.2387C89.673 23.6955 88.5562 23.9239 87.1667 23.9239C86.7271 23.9239 86.2521 23.8901 85.7419 23.8224C85.2321 23.7548 84.8274 23.6871 84.5284 23.6194V29H81.0197ZM86.6126 21.1067C87.316 21.1067 87.8701 20.9629 88.2749 20.6753C88.6793 20.3876 88.9606 19.9562 89.1189 19.3809C89.2949 18.7887 89.3827 18.0442 89.3827 17.1474C89.3827 15.76 89.1805 14.804 88.7761 14.2795C88.3889 13.7381 87.8262 13.4673 87.0876 13.4673C86.8062 13.4673 86.5072 13.5012 86.1906 13.5688C85.874 13.6365 85.566 13.7211 85.267 13.8227C84.968 13.9242 84.722 14.0257 84.5284 14.1272V20.9291C84.7396 20.946 85.0386 20.9799 85.4253 21.0306C85.8301 21.0814 86.2259 21.1067 86.6126 21.1067Z" fill="white"></path><path d="M95.0547 23.6446V20.7767L101.043 13.8987H95.0547V10.9038H105.661V13.6702L99.619 20.6498H105.687V23.6446H95.0547Z" fill="white"></path><path d="M113.937 23.9239C112.442 23.9239 111.238 23.6871 110.323 23.2133C109.426 22.7395 108.775 22.012 108.371 21.0306C107.966 20.0323 107.764 18.7464 107.764 17.1728C107.764 15.65 107.975 14.4148 108.397 13.4673C108.819 12.5029 109.488 11.7922 110.402 11.3354C111.317 10.8616 112.495 10.6248 113.937 10.6248C115.397 10.6248 116.576 10.8616 117.473 11.3354C118.387 11.7922 119.055 12.5029 119.478 13.4673C119.917 14.4148 120.137 15.65 120.137 17.1728C120.137 18.7464 119.935 20.0323 119.53 21.0306C119.126 22.012 118.466 22.7395 117.552 23.2133C116.655 23.6871 115.45 23.9239 113.937 23.9239ZM113.937 21.1322C114.676 21.1322 115.23 21.0052 115.599 20.7515C115.969 20.4807 116.215 20.0577 116.338 19.4824C116.479 18.8902 116.549 18.1204 116.549 17.1728C116.549 16.2422 116.47 15.5062 116.312 14.9648C116.153 14.4064 115.89 14.0088 115.52 13.7719C115.151 13.535 114.623 13.4165 113.937 13.4165C113.269 13.4165 112.741 13.535 112.354 13.7719C111.985 14.0088 111.721 14.4064 111.563 14.9648C111.404 15.5062 111.325 16.2422 111.325 17.1728C111.325 18.1204 111.387 18.8902 111.51 19.4824C111.651 20.0577 111.906 20.4807 112.275 20.7515C112.645 21.0052 113.199 21.1322 113.937 21.1322Z" fill="white"></path><path d="M122.802 23.6448V10.9039H126.311V11.7161C126.592 11.5469 126.935 11.3862 127.339 11.2339C127.744 11.0647 128.166 10.9209 128.606 10.8024C129.063 10.684 129.503 10.6248 129.925 10.6248C131.156 10.6248 132.106 10.8362 132.774 11.2592C133.46 11.6653 133.944 12.3421 134.225 13.2897C134.507 14.2203 134.647 15.4723 134.647 17.0459V23.6448H131.112V17.2236C131.112 16.3437 131.059 15.6416 130.954 15.1171C130.848 14.5756 130.646 14.1864 130.347 13.9495C130.048 13.7127 129.608 13.5942 129.028 13.5942C128.711 13.5942 128.377 13.6281 128.025 13.6957C127.691 13.7465 127.366 13.8227 127.049 13.9242C126.75 14.0257 126.504 14.1272 126.311 14.2287V23.6448H122.802Z" fill="white"></path><path d="M143.004 23.9239C141.544 23.9239 140.383 23.6871 139.521 23.2133C138.677 22.7395 138.07 22.0204 137.701 21.056C137.332 20.0916 137.147 18.8818 137.147 17.4266C137.147 15.853 137.375 14.5671 137.833 13.5688C138.308 12.5706 138.993 11.8345 139.89 11.3608C140.787 10.8701 141.895 10.6248 143.214 10.6248C145.167 10.6248 146.635 11.0985 147.62 12.046C148.623 12.9936 149.124 14.491 149.124 16.5383L148.966 18.4165H140.682C140.7 19.364 140.902 20.0746 141.289 20.5484C141.676 21.0222 142.344 21.259 143.294 21.259C143.839 21.259 144.437 21.2506 145.088 21.2337C145.738 21.1998 146.381 21.166 147.014 21.1322C147.664 21.0983 148.218 21.0645 148.676 21.0306L148.755 23.391C148.315 23.4587 147.761 23.5348 147.093 23.6194C146.425 23.704 145.73 23.7717 145.009 23.8224C144.305 23.8901 143.637 23.9239 143.004 23.9239ZM140.682 16.2592H145.615C145.615 15.1086 145.422 14.3049 145.035 13.848C144.666 13.3912 144.059 13.1628 143.214 13.1628C142.388 13.1628 141.755 13.3997 141.315 13.8734C140.893 14.3472 140.682 15.1424 140.682 16.2592Z" fill="white"></path><path d="M156.596 23.6447L161.186 6.31006H167.545L172.109 23.6447H168.468L167.465 20.1422H161.16L160.21 23.6447H156.596ZM161.741 17.325H166.938L164.906 9.15263H163.799L161.741 17.325Z" fill="white"></path><path d="M174.359 23.6447V6.31006H178V23.6447H174.359Z" fill="white"></path><defs><linearGradient gradientUnits="userSpaceOnUse" id="paint0_linear_188_1128" x1="15.1028" x2="24.6529" y1="-2.08964e-07" y2="30.2825"><stop stop-color="#7745AF"></stop><stop offset="0.984375" stop-color="#2885B5"></stop></linearGradient><linearGradient gradientUnits="userSpaceOnUse" id="paint1_linear_188_1128" x1="15.1027" x2="24.6528" y1="1.03592e-06" y2="30.2825"><stop stop-color="#7745AF"></stop><stop offset="0.984375" stop-color="#2885B5"></stop></linearGradient></defs></svg>