<svg version="1.1" id="Layer_1" xmlns:x="ns_extend;" xmlns:i="ns_ai;" xmlns:graph="ns_graphs;" xmlns="http://www.w3.org/2000/svg" xmlns:xlink="http://www.w3.org/1999/xlink" x="0px" y="0px" viewBox="0 0 260 64" style="enable-background:new 0 0 260 64;" xml:space="preserve">
 <style type="text/css">
  .st0{clip-path:url(#SVGID_2_);}
	.st1{fill:#FA6624;}
	.st2{fill:#6A6E6F;}
 </style>
 <metadata>
  <sfw xmlns="ns_sfw;">
   <slices>
   </slices>
   <sliceSourceBounds bottomLeftOrigin="true" height="64.1" width="260" x="-65" y="-16.1">
   </sliceSourceBounds>
  </sfw>
 </metadata>
 <g>
  <defs>
   <rect id="SVGID_1_" width="260" height="64">
   </rect>
  </defs>
  <clipPath id="SVGID_2_">
   <use href="#SVGID_1_" style="overflow:visible;">
   </use>
  </clipPath>
  <g class="st0">
   <path class="st1" d="M90.1,17.8H79.9V9.9h10.2V17.8z M79.9,21.7h10.2V53H79.9V21.7z">
   </path>
   <path class="st1" d="M94.8,9.9H105v43H94.8V9.9z">
   </path>
   <path class="st1" d="M109.6,9.9h10.2v43h-10.2V9.9z">
   </path>
   <path class="st1" d="M155,53h-9.9v-4.3c-1,1.6-2.4,2.9-4.1,3.8c-1.6,0.9-3.5,1.4-5.4,1.4c-9,0-11.5-5.2-11.5-13.4V21.7h10.2v17.9
			c0,4.1,1.7,5.7,5,5.7c2.2,0,5.7-1.4,5.7-6.9V21.5h10.2v31.3L155,53z">
   </path>
   <path class="st1" d="M158.8,21.7h9.9V26c0.9-1.6,2.3-2.8,3.8-3.8c1.6-0.9,3.3-1.4,5.2-1.4c1.8-0.2,3.7,0.2,5.3,1.1
			c1.6,0.9,2.9,2.3,3.8,3.9c1.1-1.6,2.5-2.9,4.2-3.8c1.7-0.9,3.6-1.3,5.5-1.2c9.9,0,11,7.6,11,13.5V53h-10.2V34.6
			c0-3.3-1.5-5.3-4.2-5.3c-4.4,0-4.7,3.3-4.7,8.5V53h-10.2V35.1c0-3.6-1.1-6-3.8-6c-3.6,0-5.2,2-5.2,8.5v15.3H159l-0.3-31.3
			L158.8,21.7z">
   </path>
   <path class="st1" d="M222.2,17.8h-10.2V9.9h10.2V17.8z M211.9,21.7h10.2v31.1h-10.2V21.7z">
   </path>
   <path class="st1" d="M241.2,20.8c3.3,0,6.5,0.9,9.2,2.7c2.7,1.8,4.9,4.4,6.1,7.4c1.3,3,1.6,6.3,1,9.5c-0.6,3.2-2.2,6.2-4.4,8.5
			c-2.3,2.3-5.2,3.9-8.4,4.6c-3.2,0.7-6.5,0.4-9.5-0.9c-3-1.2-5.6-3.3-7.5-6c-1.8-2.7-2.8-5.9-2.9-9.1c-0.1-4.2,1.4-8.3,4.3-11.4
			c2.9-3.1,6.9-4.9,11.1-5.1L241.2,20.8z M241.2,45.8c4.7,0,6.3-4.7,6.3-8.6c0-3.9-1.6-8.7-6.3-8.7c-4.7,0-6.1,4.7-6.1,8.7
			C235.1,41.2,236.5,45.8,241.2,45.8z">
   </path>
   <path class="st1" d="M49.7,39.6h-8.3l-3.6-3.3V26.1l3.2-2h8.5c0.4,0,0.8-0.2,1.1-0.5c0.3-0.3,0.5-0.7,0.5-1.1v-8.3
			c0-0.2,0-0.4-0.1-0.6c-0.1-0.2-0.2-0.4-0.3-0.5c-0.1-0.1-0.3-0.3-0.5-0.3c-0.2-0.1-0.4-0.1-0.6-0.1h-8.5c-0.2,0-0.4,0-0.6,0.1
			c-0.2,0.1-0.4,0.2-0.5,0.3c-0.1,0.1-0.3,0.3-0.3,0.5c-0.1,0.2-0.1,0.4-0.1,0.6v7.9l-3.6,2.2H25.6l-5.5-5v-4.3c0-0.1,0-0.2-0.1-0.4
			c0-0.1-0.1-0.2-0.2-0.3c-0.1-0.1-0.2-0.2-0.3-0.2S19.3,14,19.2,14h-5.3c-0.1,0-0.3,0-0.4,0c-0.1,0-0.2,0.1-0.3,0.2
			c-0.1,0.1-0.2,0.2-0.2,0.3c0,0.1-0.1,0.2-0.1,0.4v5.5c0,0.1,0,0.3,0.1,0.4c0,0.1,0.1,0.2,0.2,0.3c0.1,0.1,0.2,0.2,0.3,0.2
			c0.1,0,0.2,0.1,0.4,0h4.9l5.2,4.7v10.1l-5.4,3.3h-4.7c-0.1,0-0.3,0-0.4,0c-0.1,0-0.2,0.1-0.3,0.2C13.1,39.8,13,39.9,13,40
			c0,0.1-0.1,0.2-0.1,0.4v5.8c0,0.1,0,0.3,0.1,0.4c0,0.1,0.1,0.2,0.2,0.3c0.1,0.1,0.2,0.2,0.3,0.2c0.1,0,0.2,0.1,0.4,0h5.5
			c0.1,0,0.3,0,0.4,0c0.1,0,0.2-0.1,0.3-0.2c0.1-0.1,0.2-0.2,0.2-0.3c0-0.1,0.1-0.2,0.1-0.4v-4.6l5.5-3.3h10.2l3.6,3.3v8.2
			c0,0.4,0.2,0.8,0.5,1.1c0.3,0.3,0.7,0.5,1.1,0.5h8.5c0.4,0,0.8-0.2,1.1-0.5c0.3-0.3,0.5-0.7,0.5-1.1v-8.5c0-0.2,0-0.4-0.1-0.6
			c-0.1-0.2-0.2-0.4-0.3-0.5c-0.1-0.2-0.3-0.3-0.5-0.4C50.1,39.7,49.9,39.7,49.7,39.6z">
   </path>
   <path class="st2" d="M6.3,6.3h10.2V0H3.8C2.8,0,1.9,0.4,1.2,1c-0.7,0.7-1,1.6-1,2.5v17.5h6.3L6.3,6.3z">
   </path>
   <path class="st2" d="M6.3,57.9V30.3H0v30.1c0,1,0.4,1.9,1,2.5c0.7,0.7,1.6,1,2.5,1h20.3v-6.1H6.3z">
   </path>
   <path class="st2" d="M57.7,6.3v33.3H64V3.8c0-0.9-0.4-1.9-1-2.5c-0.7-0.7-1.6-1-2.5-1h-35v6.1H57.7z">
   </path>
   <path class="st2" d="M57.7,57.9h-9.1v6.3h11.9c0.9,0,1.9-0.4,2.5-1c0.7-0.7,1-1.6,1-2.5V48.9h-6.3V57.9z">
   </path>
  </g>
 </g>
</svg>