<svg version="1.1" id="Layer_1" xmlns="http://www.w3.org/2000/svg" xmlns:xlink="http://www.w3.org/1999/xlink" x="0px" y="0px" viewBox="0 0 348 65" style="enable-background:new 0 0 348 65;" xml:space="preserve">
 <style type="text/css">
  .st0{fill-rule:evenodd;clip-rule:evenodd;fill:#141414;}
	.st1{fill-rule:evenodd;clip-rule:evenodd;fill:#FA582D;}
 </style>
 <g>
  <path class="st0" d="M147,39.8c-3.3,0-4.9-1.3-4.9-3.3v-0.1c0-1.8,1-3.1,4.6-3.6l1.6-0.2c2.3-0.3,3.7-0.8,5-1.5v2.6
		C153.3,37.6,150.8,39.8,147,39.8 M147.9,11.8c-4.5,0-9.2,1.2-14.9,4.3l3.2,8c5-2.8,9.2-4,12.2-4c3.4,0,5,1.3,5,3v0.1
		c0,1.2-0.9,1.8-3.2,2.1l-4,0.4c-9.9,1.1-14,5.4-14,11.4v0.4c0,5.7,4.7,10.2,11.3,10.2c4.3,0,8.1-1.8,10.4-5.1l0.7,4.5h9V26.5
		C163.5,16.8,157.9,11.8,147.9,11.8">
  </path>
  <path class="st1" d="M63.3,12L51.8,0.5L40.3,12l5.7,5.8l-28.8,29l11.5,11.6l11.5-11.6L34.5,41L63.3,12 M0,29.5L11.5,41l28.8-29
		L28.8,0.5L0,29.5 M40.2,46.8l11.5,11.6l28.8-29L69.1,17.8L40.2,46.8">
  </path>
  <path class="st0" d="M169.3,47h10.2V0.1h-10.2V47z M119.2,30c0,5.3-2.7,9.1-7.3,9.1c-4.6,0-7.3-3.8-7.3-9.1v-0.6
		c0-5.3,2.7-9.1,7.3-9.1c4.6,0,7.3,3.8,7.3,9.1L119.2,30L119.2,30z M114.9,11.8c-4.6,0-8.4,2.1-10.4,5.3l-0.8-4.7h-9v46.4h10.2V42.7
		c1.9,3,5.6,4.9,10,4.9c8.2,0,14.8-7.3,14.8-17.3v-1.2C129.8,19.1,123.1,11.8,114.9,11.8L114.9,11.8z M324.7,30
		c0,5.3-2.7,9.1-7.3,9.1c-4.6,0-7.3-3.8-7.3-9.1v-0.6c0-5.3,2.7-9.1,7.3-9.1c4.6,0,7.3,3.8,7.3,9.1V30z M317.4,11.8
		c-10.4,0-17.8,7.3-17.8,17.3v1.2c0,10,7.4,17.3,17.8,17.3c10.4,0,17.8-7.3,17.8-17.3v-1.2C335.2,19.1,327.8,11.8,317.4,11.8
		L317.4,11.8z M341.5,13h1.2c0.7,0,1,0.2,1,0.8v0.1c0,0.5-0.3,0.8-1,0.8h-1.2V13z M344.8,13.9v-0.2c0-1-0.8-1.7-2.1-1.7h-2.3v5.4
		h1.1v-1.8h1.2l0.9,1.8h1.2l-1.1-2.1C344.4,15.1,344.8,14.6,344.8,13.9L344.8,13.9z">
  </path>
  <path class="st0" d="M342.5,19.5c-2.7,0-4.7-2-4.7-4.8c0-2.8,2-4.8,4.7-4.8s4.7,2,4.7,4.8C347.2,17.5,345.2,19.5,342.5,19.5
		 M342.5,9.2c-3.2,0-5.5,2.4-5.5,5.6s2.4,5.6,5.5,5.6s5.5-2.4,5.5-5.6C348,11.6,345.6,9.2,342.5,9.2 M259.3,47h10.2V0.1h-10.2V47z
		 M289.6,39.1c-3,0-4.1-1.5-4.1-4.6V20.3h12v-7.9h-12V4.5L275.3,6v29.5c0,8,4.1,12.1,12.3,12.1c3.6,0,7.9-1.1,11.4-3.1l-2.9-7.3
		C294,38.3,291.1,39.1,289.6,39.1 M236.9,39.8c-3.3,0-4.9-1.3-4.9-3.3v-0.1c0-1.8,1-3.1,4.6-3.6l1.6-0.2c2.3-0.3,3.7-0.8,5-1.5v2.6
		C243.2,37.6,240.8,39.8,236.9,39.8 M237.8,11.8c-4.5,0-9.2,1.2-14.9,4.3l3.2,8c5-2.8,9.2-4,12.2-4c3.4,0,5,1.3,5,3v0.1
		c0,1.2-0.9,1.8-3.2,2.1l-4,0.4c-9.9,1.1-14,5.4-14,11.4v0.4c0,5.7,4.7,10.2,11.3,10.2c4.3,0,8.1-1.8,10.4-5.1l0.7,4.5h9V26.5
		C253.4,16.8,247.9,11.8,237.8,11.8 M209.2,30c0,5.3-2.7,9.1-7.3,9.1c-4.6,0-7.3-3.8-7.3-9.1v-0.6c0-5.3,2.7-9.1,7.3-9.1
		c4.6,0,7.3,3.8,7.3,9.1V30z M201.9,11.8c-10.4,0-17.8,7.3-17.8,17.3v1.2c0,10,7.4,17.3,17.8,17.3c10.4,0,17.8-7.3,17.8-17.3v-1.2
		C219.7,19.1,212.3,11.8,201.9,11.8L201.9,11.8z M243.7,55.3h2.6l3.6,4.8h0v-4.8h2.4v8.4h-2.5l-3.7-4.9h0v4.9h-2.4V55.3 M255.6,55.3
		h7.3l0.1,2.1h-4.9v1.2h3.9v1.9h-3.9v1.3h5.1l-0.1,2.1h-7.5V55.3 M268.3,57.5h-2.9l0.1-2.2h8.2l0.1,2.2h-2.9v6.3h-2.5V57.5
		 M275.8,55.3h2.7l1.4,5.9h0.1l1.8-5.9h2.5l1.7,5.9h0.1l1.3-5.9h2.6l-2.2,8.4h-3.3l-1.5-5.1h-0.1l-1.6,5.1H278L275.8,55.3
		 M298.9,59.6c0-1.5-0.8-2.3-2.3-2.3c-1.5,0-2.3,0.9-2.3,2.3c0,1.5,0.8,2.3,2.3,2.3C298.1,61.9,298.9,61,298.9,59.6 M291.8,59.6
		c0-2.8,1.9-4.5,4.8-4.5s4.8,1.7,4.8,4.5c0,2.8-1.9,4.5-4.8,4.5C293.7,64,291.8,62.3,291.8,59.6 M308.7,59.6c0.8,0,1.1-0.5,1.1-1.1
		s-0.3-1.1-1.1-1.1h-2.1v2.2H308.7z M304.2,55.3h4.9c2.2,0,3.3,1.1,3.3,3c0,1.4-0.6,2.3-1.6,2.7l2,2.7h-2.9l-1.5-2.2h-1.7v2.2h-2.5
		L304.2,55.3L304.2,55.3z M315.7,55.3h2.5v3.1h1l2.5-3.1h2.8l0,0l-3.2,4l3.4,4.4l0,0h-2.9l-2.5-3.2h-1v3.2h-2.5V55.3 M326.6,63.2
		v-2.3h0c1.4,0.7,2.8,1.1,4,1.1c0.9,0,1.4-0.2,1.4-0.6c0-0.4-0.3-0.5-2.1-0.8c-2-0.3-3.3-0.9-3.3-2.6c0-1.6,1.4-2.8,4.1-2.8
		c1.1,0,2.2,0.2,3.3,0.7v2.3l0,0c-1-0.6-2.3-0.9-3.4-0.9c-1,0-1.3,0.2-1.3,0.6c0,0.5,0.6,0.5,2.1,0.8c2,0.3,3.3,0.9,3.3,2.7
		c0,1.4-1,2.8-4,2.8C329,64,327.9,63.7,326.6,63.2">
  </path>
 </g>
</svg>