<svg version="1.1" id="Layer_1" xmlns:x="ns_extend;" xmlns:i="ns_ai;" xmlns:graph="ns_graphs;" xmlns="http://www.w3.org/2000/svg" xmlns:xlink="http://www.w3.org/1999/xlink" x="0px" y="0px" viewBox="0 0 50.2 62" style="enable-background:new 0 0 50.2 62;" xml:space="preserve">
 <style type="text/css">
  .st0{fill:#00ABC7;}
 </style>
 <metadata>
  <sfw xmlns="ns_sfw;">
   <slices>
   </slices>
   <sliceSourceBounds bottomLeftOrigin="true" height="62" width="50.2" x="-132.9" y="-231.4">
   </sliceSourceBounds>
  </sfw>
 </metadata>
 <g>
  <path class="st0" d="M31.7,55.6c-5.5,0.1-10.6-2.9-13.2-7.7c-1.2-2-4.2-7.4-4.3-7.6c-1.3-2.4,2.2-4.3,3.5-2c0,0.1,3.1,5.6,4.3,7.6
		c2.9,4.9,8.1,6.8,14,5c2.6-0.8,3.8,3.1,1.2,3.9C35.4,55.3,33.5,55.6,31.7,55.6L31.7,55.6z M31.7,55.6">
  </path>
  <path class="st0" d="M32.1,62c-7.7,0-14.9-3.6-18.6-9.9L5.3,37.8c-0.6-1-0.2-2.2,0.7-2.8l5.7-3.3c1-0.6,2.2-0.2,2.8,0.7
		c0.6,1,0.2,2.2-0.8,2.8l-3.9,2.2l7.3,12.6C21,57,30.4,59.8,39,56.8c6.9-6,9.1-15.5,5.2-22.4l-7-12.1c-0.6-1-0.2-2.2,0.7-2.8
		c1-0.6,2.2-0.2,2.8,0.8l7,12.1c5,8.6,2.2,20.5-6.3,27.7c-0.2,0.2-0.4,0.3-0.6,0.4C38,61.5,35.1,62,32.1,62L32.1,62z M32.1,62">
  </path>
  <path class="st0" d="M31.5,49c-3.2,0-5.9-2.1-7.3-4.5L0.3,3.1C-1,0.7,2.4-1.3,3.8,1l23.9,41.5c0.7,1.1,2.5,3.1,4.8,2.3
		c2.6-0.8,3.8,3,1.2,3.9C33.1,48.9,32.3,49,31.5,49L31.5,49z M26.3,27.6c-0.7,0-1.4-0.4-1.8-1L17.9,15c-1.3-2.3,2.2-4.3,3.5-2
		l5.7,9.9l3.6-2.1c2.3-1.3,4.3,2.2,2,3.5l-5.4,3.1C27.1,27.5,26.7,27.6,26.3,27.6L26.3,27.6z M26.3,27.6">
  </path>
 </g>
</svg>